<svg width="317" height="195" viewBox="0 0 317 195" fill="none" xmlns="http://www.w3.org/2000/svg">
<path d="M154.821 182.459C149.496 188.805 140.035 189.633 133.689 184.308L87.024 145.151L199.179 11.4905C204.504 5.1444 213.965 4.31663 220.311 9.64165L255.485 39.1564C261.831 44.4814 262.659 53.9427 257.334 60.2888L154.821 182.459Z" fill="#000694"/>
<path d="M215.182 171.762V136.853H227.727V171.762H215.182ZM221.455 133.217C219.758 133.217 218.303 132.656 217.091 131.535C215.879 130.413 215.273 129.065 215.273 127.489C215.273 125.913 215.879 124.565 217.091 123.444C218.303 122.323 219.758 121.762 221.455 121.762C223.167 121.762 224.621 122.323 225.818 123.444C227.03 124.565 227.636 125.913 227.636 127.489C227.636 129.065 227.03 130.413 225.818 131.535C224.621 132.656 223.167 133.217 221.455 133.217ZM246.367 172.398C242.639 172.398 239.427 171.686 236.73 170.262C234.048 168.823 231.98 166.762 230.526 164.08C229.086 161.383 228.367 158.156 228.367 154.398C228.367 150.792 229.094 147.641 230.548 144.944C232.003 142.247 234.056 140.148 236.708 138.648C239.359 137.148 242.488 136.398 246.094 136.398C248.73 136.398 251.117 136.807 253.253 137.626C255.389 138.444 257.215 139.633 258.73 141.194C260.245 142.739 261.412 144.618 262.23 146.83C263.048 149.042 263.458 151.535 263.458 154.307V157.217H232.276V150.307H251.912C251.897 149.307 251.639 148.429 251.139 147.671C250.654 146.898 249.995 146.3 249.162 145.876C248.344 145.436 247.412 145.217 246.367 145.217C245.351 145.217 244.42 145.436 243.571 145.876C242.723 146.3 242.041 146.891 241.526 147.648C241.026 148.406 240.761 149.292 240.73 150.307V157.762C240.73 158.883 240.965 159.883 241.435 160.762C241.904 161.641 242.579 162.33 243.458 162.83C244.336 163.33 245.397 163.58 246.639 163.58C247.503 163.58 248.291 163.459 249.003 163.217C249.73 162.974 250.351 162.626 250.867 162.171C251.382 161.701 251.761 161.141 252.003 160.489H263.458C263.064 162.913 262.132 165.02 260.662 166.807C259.192 168.58 257.245 169.959 254.821 170.944C252.412 171.913 249.594 172.398 246.367 172.398ZM269.841 171.762L261.114 136.853H273.659L277.659 158.126H277.932L282.387 136.853H294.568L299.205 157.944H299.478L303.296 136.853H315.841L307.114 171.762H293.568L288.659 153.035H288.296L283.387 171.762H269.841Z" fill="#000694"/>
<path d="M9.43182 172H0.909091L10.5114 142.909H21.3068L30.9091 172H22.3864L16.0227 150.92H15.7955L9.43182 172ZM7.84091 160.523H23.8636V166.432H7.84091V160.523ZM45.1723 162.455V150.182H53.0132V172H45.57V167.852H45.3428C44.8693 169.244 44.0407 170.333 42.857 171.119C41.6732 171.896 40.267 172.284 38.6382 172.284C37.1136 172.284 35.7784 171.934 34.6325 171.233C33.4962 170.532 32.6107 169.566 31.9763 168.335C31.3513 167.104 31.034 165.693 31.0246 164.102V150.182H38.8655V162.455C38.875 163.534 39.1496 164.382 39.6893 164.997C40.2386 165.613 41.0056 165.92 41.9905 165.92C42.6439 165.92 43.2073 165.783 43.6808 165.509C44.1638 165.224 44.5331 164.827 44.7888 164.315C45.0539 163.795 45.1818 163.174 45.1723 162.455ZM67.2125 150.182V155.864H52.8375V150.182H67.2125ZM55.6216 144.955H63.4625V164.983C63.4625 165.286 63.5146 165.542 63.6188 165.75C63.7229 165.949 63.8839 166.1 64.1017 166.205C64.3195 166.299 64.5989 166.347 64.9398 166.347C65.1765 166.347 65.4511 166.318 65.7636 166.261C66.0856 166.205 66.3224 166.157 66.4739 166.119L67.6102 171.631C67.2599 171.735 66.758 171.863 66.1045 172.014C65.4606 172.166 64.6936 172.265 63.8034 172.312C62.0042 172.407 60.4938 172.223 59.2722 171.759C58.0506 171.285 57.132 170.542 56.5165 169.528C55.9009 168.515 55.6027 167.246 55.6216 165.722V144.955ZM77.8891 172.398C75.5216 172.398 73.4951 171.929 71.8095 170.991C70.1239 170.045 68.8313 168.728 67.9317 167.043C67.0321 165.348 66.5822 163.383 66.5822 161.148C66.5822 158.913 67.0321 156.953 67.9317 155.267C68.8313 153.572 70.1239 152.256 71.8095 151.318C73.4951 150.371 75.5216 149.898 77.8891 149.898C80.2565 149.898 82.283 150.371 83.9686 151.318C85.6542 152.256 86.9468 153.572 87.8464 155.267C88.7461 156.953 89.1959 158.913 89.1959 161.148C89.1959 163.383 88.7461 165.348 87.8464 167.043C86.9468 168.728 85.6542 170.045 83.9686 170.991C82.283 171.929 80.2565 172.398 77.8891 172.398ZM77.9459 166.602C78.6088 166.602 79.1817 166.38 79.6646 165.935C80.1476 165.49 80.5216 164.855 80.7868 164.031C81.0519 163.207 81.1845 162.227 81.1845 161.091C81.1845 159.945 81.0519 158.965 80.7868 158.151C80.5216 157.327 80.1476 156.692 79.6646 156.247C79.1817 155.802 78.6088 155.58 77.9459 155.58C77.2451 155.58 76.6438 155.802 76.1419 156.247C75.64 156.692 75.2565 157.327 74.9913 158.151C74.7262 158.965 74.5936 159.945 74.5936 161.091C74.5936 162.227 74.7262 163.207 74.9913 164.031C75.2565 164.855 75.64 165.49 76.1419 165.935C76.6438 166.38 77.2451 166.602 77.9459 166.602Z" fill="#000694"/>
<path d="M154.821 182.459C149.496 188.805 140.035 189.633 133.689 184.308L87.024 145.151L199.179 11.4909C204.504 5.14477 213.965 4.31699 220.311 9.64202L255.485 39.1567C261.831 44.4818 262.659 53.9431 257.334 60.2892L154.821 182.459Z" fill="#000694"/>
<path d="M31.4907 99.2834C25.1445 93.9584 24.3168 84.4971 29.6418 78.1509L63.1205 38.2525C68.4456 31.9064 77.9069 31.0787 84.253 36.4037L197.418 131.36L154.297 182.749C148.972 189.095 139.511 189.923 133.165 184.598L31.4907 99.2834Z" fill="#000694"/>
<path d="M175.259 117.644L161.955 106.345L170.098 96.7572L173.008 99.2289L167.933 105.205L170.219 107.147L174.876 101.665L177.786 104.136L173.13 109.619L175.416 111.561L180.47 105.611L183.38 108.082L175.259 117.644ZM182.4 97.8604L188.013 102.627L184.968 106.213L174.99 97.7387L177.881 94.3348L179.778 95.9458L179.866 95.8419C179.417 95.0883 179.245 94.2861 179.349 93.4352C179.457 92.5799 179.822 91.7863 180.443 91.0544C181.043 90.3485 181.725 89.8736 182.492 89.6298C183.257 89.378 184.043 89.3482 184.849 89.5406C185.658 89.7285 186.422 90.1318 187.142 90.7504L193.508 96.1572L190.463 99.743L184.85 94.9762C184.36 94.5526 183.866 94.349 183.367 94.3654C182.872 94.3775 182.434 94.6087 182.051 95.0591C181.801 95.3536 181.647 95.6665 181.59 95.9977C181.531 96.3209 181.572 96.6421 181.71 96.9613C181.845 97.2769 182.075 97.5766 182.4 97.8604ZM190.087 79.9624L192.686 82.1692L187.102 88.7432L184.504 86.5363L190.087 79.9624ZM183.195 83.2328L186.24 79.647L195.4 87.4261C195.538 87.5438 195.675 87.6193 195.811 87.6526C195.943 87.6822 196.074 87.6674 196.207 87.6083C196.334 87.5455 196.465 87.4361 196.597 87.2802C196.689 87.1719 196.783 87.0353 196.878 86.8703C196.977 86.701 197.047 86.5743 197.089 86.4903L200.051 88.1113C199.962 88.312 199.826 88.5912 199.641 88.9488C199.461 89.3022 199.208 89.6916 198.884 90.1171C198.228 90.9767 197.557 91.5957 196.871 91.9741C196.18 92.3489 195.483 92.4802 194.78 92.3682C194.078 92.2561 193.382 91.8997 192.692 91.2988L183.195 83.2328ZM205.459 82.454C204.555 83.5193 203.571 84.2646 202.509 84.6897C201.447 85.1068 200.356 85.1977 199.236 84.9625C198.116 84.7192 197.019 84.1415 195.945 83.2293C194.914 82.3539 194.19 81.381 193.772 80.3106C193.354 79.2401 193.253 78.1439 193.468 77.0219C193.683 75.8999 194.228 74.8235 195.103 73.7928C195.743 73.0393 196.44 72.4565 197.192 72.0445C197.945 71.6325 198.728 71.3994 199.542 71.3452C200.351 71.2873 201.171 71.4099 202.002 71.713C202.833 72.0162 203.645 72.5043 204.437 73.1774L205.269 73.8835L197.699 82.7961L195.725 81.1189L200.491 75.5063C200.202 75.2679 199.888 75.1282 199.55 75.0872C199.212 75.0382 198.881 75.0813 198.557 75.2165C198.233 75.3437 197.944 75.5567 197.69 75.8555C197.444 76.1457 197.28 76.4654 197.2 76.8145C197.115 77.16 197.119 77.4984 197.21 77.8295C197.305 78.1563 197.494 78.4473 197.777 78.7024L199.908 80.512C200.228 80.7842 200.571 80.9598 200.936 81.0389C201.301 81.1179 201.662 81.0926 202.018 80.9628C202.375 80.833 202.704 80.5905 203.005 80.2354C203.215 79.9886 203.371 79.7339 203.475 79.4715C203.582 79.2048 203.633 78.9427 203.629 78.6851C203.619 78.4238 203.551 78.1795 203.424 77.952L206.204 74.678C206.802 75.3791 207.177 76.1567 207.332 77.0108C207.482 77.8612 207.403 78.7524 207.096 79.6844C206.788 80.6083 206.243 81.5316 205.459 82.454ZM210.669 75.9513L200.691 67.477L203.648 63.9951L205.545 65.6061L205.633 65.5022C205.086 64.7244 204.818 64.0006 204.828 63.3306C204.841 62.6564 205.074 62.0529 205.527 61.5202C205.659 61.3643 205.803 61.2216 205.957 61.0921C206.111 60.9546 206.271 60.8328 206.435 60.7266L209.495 63.3252C209.284 63.4513 209.052 63.6313 208.801 63.8654C208.55 64.0995 208.346 64.3097 208.188 64.4959C207.89 64.8467 207.701 65.2309 207.623 65.6485C207.543 66.058 207.578 66.4643 207.728 66.8673C207.873 67.2666 208.137 67.6281 208.518 67.9518L213.715 72.3655L210.669 75.9513Z" fill="white"/>
<path d="M136 126.045L147.325 134.886C148.66 135.928 150.354 136.397 152.035 136.19C153.716 135.983 155.245 135.116 156.287 133.781L165.212 122.348L165.902 127.95L169.07 127.559L167.714 116.549L156.704 117.906L157.094 121.074L162.695 120.384L153.771 131.817C153.25 132.484 152.485 132.917 151.644 133.021C150.804 133.124 149.957 132.89 149.289 132.369L137.965 123.529L136 126.045Z" fill="white"/>
</svg>
